<?xml version="1.0" encoding="UTF-8"?>
<svg version="1.1" xmlns="http://www.w3.org/2000/svg" width="485" height="411">
<path d="M0 0 C0.77811035 0.16628906 1.5562207 0.33257813 2.35791016 0.50390625 C27.24096463 6.01645986 51.22048847 16.83798025 71 33 C71.89460938 33.69351563 72.78921875 34.38703125 73.7109375 35.1015625 C90.71544996 48.50053363 103.95966722 64.6035793 114.875 83.25 C115.40552979 84.14332031 115.93605957 85.03664063 116.48266602 85.95703125 C116.96018311 86.80136719 117.4377002 87.64570312 117.9296875 88.515625 C118.35491699 89.26102539 118.78014648 90.00642578 119.21826172 90.77441406 C120.22455576 93.63930365 119.96879687 95.13937481 119 98 C117.60131836 99.8527832 117.60131836 99.8527832 115.83984375 101.55078125 C115.21142578 102.16630859 114.58300781 102.78183594 113.93554688 103.41601562 C113.27619141 104.04185547 112.61683594 104.66769531 111.9375 105.3125 C110.94266602 106.28026367 110.94266602 106.28026367 109.92773438 107.26757812 C108.29382329 108.85447018 106.65131853 110.43126328 105 112 C102.71346641 109.90001439 101.32018459 107.97453123 99.9765625 105.18359375 C84.09833089 73.1190812 59.92345405 47.6187157 27 33 C26.38979004 32.72462402 25.77958008 32.44924805 25.15087891 32.16552734 C-10.23184627 16.4071539 -51.7735371 15.18555376 -88 29 C-101.37795461 34.50391782 -113.69729306 40.96372127 -125 50 C-125.969375 50.75023437 -126.93875 51.50046875 -127.9375 52.2734375 C-159.19569421 77.01950791 -179.87269223 115.02191168 -184.71875 154.5390625 C-188.88212269 192.89187069 -180.48687247 230.76969129 -159 263 C-159 263.99 -159 264.98 -159 266 C-169.89 267.98 -169.89 267.98 -181 270 C-199.48896958 246.88878803 -207.91437427 213.14740606 -209 184 C-209.02723145 183.3390332 -209.05446289 182.67806641 -209.08251953 181.99707031 C-210.90533227 131.62323906 -192.00862292 85.36849505 -158.01171875 48.75390625 C-118.09654432 6.82001889 -56.6345587 -12.26096562 0 0 Z " fill="#0A0A0A" transform="translate(279,31)"/>
<path d="M0 0 C0 0.66 0 1.32 0 2 C-0.66 2 -1.32 2 -2 2 C-2.22816406 2.53882812 -2.45632813 3.07765625 -2.69140625 3.6328125 C-4.39644127 6.71714451 -6.63033359 9.23549937 -8.9375 11.875 C-13.40478555 17.0631967 -17.72304983 22.33695889 -21.85961914 27.79345703 C-24.07762741 30.68926707 -26.29752762 33.36188246 -28.9609375 35.859375 C-38.59496477 45.21193002 -39.73811707 56.28477115 -41.375 69.25195312 C-42.71407807 75.13971199 -46.26969931 78.41444056 -50.6875 82.3125 C-51.45416992 82.9940918 -51.45416992 82.9940918 -52.23632812 83.68945312 C-53.48576335 84.79876478 -54.74217823 85.90020678 -56 87 C-50.04256477 90.97162348 -43.58372661 93.7151979 -36.38134766 92.27783203 C-32.58096694 90.88369693 -28.96435533 89.29836163 -25.3125 87.5625 C-24.06087256 87.00479598 -22.80761458 86.4507366 -21.55273438 85.90039062 C-18.00440079 84.33059889 -14.50584678 82.66247005 -11 81 C-10.09378906 80.61618164 -9.18757812 80.23236328 -8.25390625 79.83691406 C-0.85600919 76.56543836 4.10475949 71.43577949 9.625 65.625 C11.40647932 63.78155618 13.19029513 61.94036715 14.9765625 60.1015625 C15.82565186 59.22604736 16.67474121 58.35053223 17.54956055 57.44848633 C20.3563301 54.64395392 23.28527976 52.03935213 26.30273438 49.46582031 C28.4598991 47.60281441 30.45490323 45.60892282 32.4375 43.5625 C33.60655669 42.35683879 34.78857794 41.16308602 36 40 C36.33 40 36.66 40 37 40 C37.51810307 54.93863849 35.24966252 68.88998821 31.76879883 83.34313965 C31.42661166 84.76575262 31.08973722 86.18965541 30.75854492 87.61486816 C28.78399765 96.03712881 26.55055143 103.2167913 21 110 C20.56026855 110.55284668 20.12053711 111.10569336 19.66748047 111.67529297 C18.41447035 113.20610893 17.11364624 114.69738245 15.8125 116.1875 C11.93331511 120.67852272 8.19724996 125.24671669 4.5625 129.9375 C2.71580046 132.29761243 0.86068551 134.65090046 -1 137 C-1.73718262 137.93223389 -1.73718262 137.93223389 -2.48925781 138.88330078 C-3.9961552 140.77055651 -5.5256757 142.63706968 -7.0625 144.5 C-7.50843506 145.06323975 -7.95437012 145.62647949 -8.41381836 146.20678711 C-16.69651493 156.09382299 -30.65217581 161.0208418 -41.9375 166.75 C-64.43633097 178.19697311 -64.43633097 178.19697311 -86.69038391 190.11048889 C-100.70266725 197.79337002 -114.70700273 204.46243231 -129.875 209.5625 C-130.92146698 209.92237503 -130.92146698 209.92237503 -131.98907471 210.28952026 C-146.25120283 215.13855932 -155.02652282 212.95686118 -169.0625 208.4375 C-170.41837747 208.00769835 -171.7744958 207.57865576 -173.13085938 207.15039062 C-176.42339507 206.10899454 -179.71255523 205.05737273 -183 204 C-182.43207751 196.86941769 -180.58004759 190.22698561 -178.51879883 183.39086914 C-178.13177992 182.09034907 -177.75671694 180.78621016 -177.39379883 179.47875977 C-174.93677418 170.63102845 -172.5458619 165.29286308 -165 160 C-163.96892357 159.09543986 -162.95170656 158.1746848 -161.953125 157.234375 C-161.06109375 156.41453125 -160.1690625 155.5946875 -159.25 154.75 C-158.34765625 153.91984375 -157.4453125 153.0896875 -156.515625 152.234375 C-154 150 -154 150 -151.97619629 148.69300842 C-149.47063461 146.54649239 -148.89667202 144.79869155 -147.86523438 141.67749023 C-147.31446228 140.04450233 -147.31446228 140.04450233 -146.75256348 138.37852478 C-146.37015503 137.20044754 -145.98774658 136.0223703 -145.59375 134.80859375 C-144.9723306 132.95154687 -144.350909 131.09450072 -143.72936249 129.23749638 C-142.86162346 126.63349126 -142.00638388 124.02544448 -141.15081787 121.41741943 C-139.65986917 116.88165232 -138.14828274 112.35271726 -136.63830566 107.82325745 C-135.8368625 105.41502715 -135.03967435 103.00537521 -134.24743652 100.59410095 C-132.56059979 95.49141984 -130.84245694 90.40023704 -128.96679688 85.36352539 C-128.68026245 84.58787735 -128.39372803 83.81222931 -128.09851074 83.01307678 C-125.64428271 78.51557914 -120.75894712 76.58238598 -116.0859375 75.03515625 C-111.34635981 71.90943476 -109.80463072 67.44253094 -107.5 62.375 C-98.71647965 43.51700962 -98.71647965 43.51700962 -91.1875 37.8125 C-90.24261719 37.07773438 -89.29773438 36.34296875 -88.32421875 35.5859375 C-87.53990479 34.98217285 -87.53990479 34.98217285 -86.73974609 34.36621094 C-84.01830194 32.2290791 -81.37351037 30.00157131 -78.71777344 27.78369141 C-75.80982971 25.36296591 -72.87815071 22.97219396 -69.94189453 20.5859375 C-68.29184981 19.23835257 -66.65780431 17.87121519 -65.02734375 16.5 C-48.91274285 3.66665268 -20.14825371 0 0 0 Z M-62 31 C-63.06790935 31.89454527 -64.136976 32.78771027 -65.20703125 33.6796875 C-67.43456702 35.545395 -69.64557222 37.42856612 -71.84765625 39.32421875 C-75.39281919 42.36154061 -79.0683603 45.22161016 -82.78125 48.05078125 C-88.09387728 52.71803656 -91.28969243 57.91866347 -94.375 64.1875 C-94.74238281 64.89841797 -95.10976563 65.60933594 -95.48828125 66.34179688 C-97.73242341 70.50220752 -97.73242341 70.50220752 -97 75 C-94.77403151 76.18263047 -94.77403151 76.18263047 -92.01171875 77.078125 C-90.99529297 77.43390625 -89.97886719 77.7896875 -88.93164062 78.15625 C-87.86107422 78.5171875 -86.79050781 78.878125 -85.6875 79.25 C-84.62853516 79.62640625 -83.56957031 80.0028125 -82.47851562 80.390625 C-76.30567122 82.84287908 -76.30567122 82.84287908 -70 82 C-62.08556026 77.40135202 -55.43455082 70.86303117 -53.01171875 61.94140625 C-52.10262439 57.76337993 -51.4503983 53.57707029 -50.859375 49.34375 C-49.78321164 41.78664857 -46.55729574 37.13651652 -41.625 31.5625 C-37.83026438 27.18530208 -34.24383076 22.80981802 -31 18 C-42.57316249 18 -53.47321709 23.65576363 -62 31 Z M19 74 C18.28199219 74.83402344 17.56398438 75.66804688 16.82421875 76.52734375 C8.08309358 86.2095544 -1.0644807 91.07518215 -13 96 C-15.84422647 97.20368812 -18.68540597 98.41426935 -21.52539062 99.62792969 C-23.33631521 100.39760436 -25.1512547 101.15792396 -26.97070312 101.90722656 C-35.796489 105.58749026 -40.90102759 109.63931193 -46.375 117.4375 C-47.61023475 119.15620298 -48.84728242 120.87360414 -50.0859375 122.58984375 C-50.7262793 123.4804248 -51.36662109 124.37100586 -52.02636719 125.28857422 C-55.27444124 129.75085903 -58.63859156 134.12283504 -62 138.5 C-67.9176942 146.22663715 -73.74158946 154.01551936 -79.484375 161.87304688 C-80.28875 162.97229492 -80.28875 162.97229492 -81.109375 164.09375 C-81.85477539 165.11275391 -81.85477539 165.11275391 -82.61523438 166.15234375 C-83.82882328 167.77160342 -85.10511619 169.34347459 -86.390625 170.90625 C-88.20314159 172.82414631 -88.20314159 172.82414631 -88 175 C-83.05288217 173.51065919 -78.65969562 171.4364435 -74.09375 169.0703125 C-73.33977936 168.68368439 -72.58580872 168.29705627 -71.80899048 167.89871216 C-69.37002057 166.64585716 -66.93468689 165.38615598 -64.5 164.125 C-63.67207947 163.6971521 -62.84415894 163.2693042 -61.9911499 162.82849121 C-57.05633097 160.27756133 -52.12696304 157.7163564 -47.20153809 155.14733887 C-45.21155196 154.11025101 -43.21988869 153.07648276 -41.22753906 152.04394531 C-38.18496165 150.46123116 -35.15275703 148.86083959 -32.125 147.25 C-31.27873047 146.81059082 -30.43246094 146.37118164 -29.56054688 145.91845703 C-22.11899514 141.89811415 -16.98777052 136.45314486 -11.75 129.875 C-8.86578156 126.29053837 -5.95048427 122.74551401 -2.95483398 119.25439453 C-1.54892554 117.60911434 -0.1600275 115.9506405 1.2265625 114.2890625 C3.00897477 112.15392022 4.83496206 110.07652028 6.7109375 108.0234375 C14.32531825 99.1742923 18.42999556 88.62161043 20 77 C19.505 75.515 19.505 75.515 19 74 Z M-117 91 C-118.86659134 94.02924198 -119.89797376 97.19358557 -120.95703125 100.578125 C-121.27153732 101.50413513 -121.5860434 102.43014526 -121.91007996 103.38421631 C-122.90425016 106.33133656 -123.85874883 109.28958338 -124.8125 112.25 C-125.47071853 114.22352156 -126.13150266 116.19618938 -126.79492188 118.16796875 C-128.29010639 122.6294083 -129.76059587 127.09799618 -131.20449829 131.57629395 C-131.74378313 133.21936765 -132.30001507 134.85695777 -132.87142944 136.48913574 C-133.14677521 137.27872681 -133.42212097 138.06831787 -133.70581055 138.88183594 C-133.95453415 139.57952087 -134.20325775 140.27720581 -134.45951843 140.99603271 C-135.17360072 143.29773811 -135.17360072 143.29773811 -135 147 C-134.19256348 147.28907227 -133.38512695 147.57814453 -132.55322266 147.87597656 C-110.15433711 156.2340105 -110.15433711 156.2340105 -106.52490234 162.57861328 C-104.89979878 168.40839939 -105.2230183 174.05104854 -106 180 C-101.96301677 176.30596438 -98.9404766 171.97455548 -95.75 167.5625 C-90.58127038 160.47739817 -85.33398163 153.46150662 -80 146.5 C-69.78889404 133.15566039 -59.8499769 119.61254572 -50 106 C-51.32403831 103.35192337 -52.37438815 103.30914489 -55.13330078 102.3359375 C-56.01156525 102.02221191 -56.88982971 101.70848633 -57.79470825 101.38525391 C-58.75190765 101.05187012 -59.70910706 100.71848633 -60.6953125 100.375 C-61.67611786 100.02743652 -62.65692322 99.67987305 -63.66744995 99.32177734 C-65.7494323 98.58546979 -67.8326548 97.85266113 -69.91699219 97.12304688 C-73.09310486 96.01116573 -76.26558658 94.88942247 -79.4375 93.765625 C-81.46073121 93.0514986 -83.48416254 92.3379389 -85.5078125 91.625 C-86.45286652 91.29161621 -87.39792053 90.95823242 -88.37161255 90.61474609 C-103.25524208 84.8921187 -103.25524208 84.8921187 -117 91 Z M-145.859375 159.50390625 C-146.48328125 160.18324219 -147.1071875 160.86257813 -147.75 161.5625 C-151.07698522 165.07604513 -154.52696597 168.25782957 -158.23828125 171.359375 C-162.27299726 175.1167602 -163.7709195 178.70817458 -165.3125 184 C-165.67988281 185.216875 -166.04726562 186.43375 -166.42578125 187.6875 C-167.17174876 190.82192928 -167.17174876 190.82192928 -166.56640625 193.22265625 C-162.53362764 197.7985023 -154.85495343 199.80441936 -149 201 C-144.56742205 200.94338981 -141.09348566 199.63170228 -137 198 C-135.34678565 197.40144006 -133.69166932 196.80811926 -132.03515625 196.21875 C-127.33525938 194.53329073 -122.66451393 192.78090751 -118 191 C-118.11020857 187.91595192 -118.24075814 184.83308808 -118.375 181.75 C-118.4059375 180.87730469 -118.436875 180.00460937 -118.46875 179.10546875 C-118.52675781 177.83896484 -118.52675781 177.83896484 -118.5859375 176.546875 C-118.6173584 175.77182617 -118.6487793 174.99677734 -118.68115234 174.19824219 C-119.03026506 171.79134258 -119.80551104 170.10397705 -121 168 C-121.66 168 -122.32 168 -123 168 C-123 167.34 -123 166.68 -123 166 C-125.74569923 164.65712527 -128.49594266 163.32553004 -131.25 162 C-132.41595703 161.42765625 -132.41595703 161.42765625 -133.60546875 160.84375 C-134.35957031 160.4828125 -135.11367187 160.121875 -135.890625 159.75 C-136.58188477 159.41484375 -137.27314453 159.0796875 -137.98535156 158.734375 C-141.09824927 157.59966871 -143.22844979 157.37595204 -145.859375 159.50390625 Z " fill="#0E0E0E" transform="translate(356,107)"/>
<path d="M0 0 C0.66 0 1.32 0 2 0 C7.38933373 45.5461367 -3.93305493 93.35410191 -32 130 C-32.64195312 130.85078125 -33.28390625 131.7015625 -33.9453125 132.578125 C-61.94827144 168.63051748 -102.38815708 193.65806492 -147.85668945 200.22436523 C-195.57570935 205.93885946 -239.92978413 192.31006691 -278.0078125 163.77734375 C-278.99394531 162.89755859 -278.99394531 162.89755859 -280 162 C-280 161.34 -280 160.68 -280 160 C-275.94167606 158.96205291 -271.87781907 157.94767019 -267.8125 156.9375 C-266.08676758 156.49567383 -266.08676758 156.49567383 -264.32617188 156.04492188 C-262.65844727 155.6340332 -262.65844727 155.6340332 -260.95703125 155.21484375 C-259.93585205 154.95823975 -258.91467285 154.70163574 -257.86254883 154.43725586 C-252.12827425 153.56134236 -248.68391686 155.6018295 -243.875 158.5625 C-229.17559021 167.23345584 -213.66803764 172.56348066 -197 176 C-195.83597656 176.24621094 -194.67195313 176.49242187 -193.47265625 176.74609375 C-157.07978451 183.14241666 -118.29682772 173.4319832 -88.05541992 152.68945312 C-82.4762203 148.73709863 -77.19292097 144.44493401 -72 140 C-71.34515625 139.46761719 -70.6903125 138.93523437 -70.015625 138.38671875 C-41.93891187 115.341452 -24.9755732 76.42160235 -21 41 C-20.92465856 39.15835653 -20.8724596 37.31561657 -20.84375 35.47265625 C-20.6342288 26.36785947 -20.21405606 20.26619284 -13.69848633 13.45092773 C-11.11406828 11.01926818 -8.44802473 8.7202208 -5.69628906 6.48046875 C-3.49050935 4.55533229 -1.80614848 2.29406537 0 0 Z " fill="#0A0A0A" transform="translate(415,183)"/>
<path d="M0 0 C0.33 0 0.66 0 1 0 C1.3383344 2.37438249 1.67079002 4.74934959 2 7.125 C2.09539063 7.79015625 2.19078125 8.4553125 2.2890625 9.140625 C3.37469632 17.05024283 3.33695129 21.2818067 -1.125 28 C-8.43991589 39.59600899 -16.54744656 54.01201618 -13.53515625 68.1875 C-11.93414707 73.79576884 -9.650871 78.36254836 -5 82 C14.63452678 92.26954924 38.20470239 88.86942231 59 84 C60.10456543 83.7510498 60.10456543 83.7510498 61.23144531 83.49707031 C73.34559842 80.70149652 84.87048705 76.16784086 96.42797852 71.65795898 C97.63768311 71.18688721 98.8473877 70.71581543 100.09375 70.23046875 C101.18365234 69.80145264 102.27355469 69.37243652 103.39648438 68.93041992 C106 68 106 68 108 68 C106.74695057 75.15557176 104.89656607 82.04097923 102.8046875 88.99609375 C101.87062149 91.96466804 101.87062149 91.96466804 102 95 C107.28 96.65 112.56 98.3 118 100 C118 100.66 118 101.32 118 102 C88.49703541 110.93914111 88.49703541 110.93914111 74 113.9375 C73.1028125 114.12401123 72.205625 114.31052246 71.28125 114.50268555 C42.14913582 120.25681361 9.03904239 122.69488842 -17 106 C-25.50143713 99.77943625 -30.95366809 89.6616688 -32.75390625 79.32421875 C-35.7391465 51.13028309 -20.37282914 25.51186826 -3.56005859 4.17236328 C-2.4045076 2.75560055 -1.20649108 1.3736426 0 0 Z " fill="#0A0A0A" transform="translate(61,221)"/>
<path d="M0 0 C1.09850784 -0.00855011 1.09850784 -0.00855011 2.21920776 -0.01727295 C3.76038196 -0.02665324 5.30157558 -0.03322889 6.84277344 -0.03710938 C9.1533682 -0.04676502 11.46305241 -0.07783391 13.7734375 -0.109375 C31.61747283 -0.23703047 49.14178282 3.21921924 63.0546875 15.203125 C72.03200816 24.45614073 75.35530175 35.31052177 75.36938477 47.99462891 C74.76530153 77.98432305 54.49038458 106.15051973 36.0546875 128.203125 C35.19393624 129.24993901 34.33326431 130.29681826 33.47265625 131.34375 C27.671299 138.34817728 21.61850557 144.89559483 15.0546875 151.203125 C13.56014944 147.24758092 14.53260317 144.05250448 15.4296875 140.015625 C17.10334175 132.42161434 18.24940565 125.29839823 17.80078125 117.49609375 C16.77072995 99.1029603 16.77072995 99.1029603 22.4296875 92.640625 C23.33976562 91.76277344 24.24984375 90.88492188 25.1875 89.98046875 C28.45301898 86.81727529 30.8317571 83.49431936 33.3046875 79.703125 C33.72161865 79.06866455 34.1385498 78.4342041 34.56811523 77.78051758 C39.9449741 69.44997662 44.38145748 60.77887431 47.0546875 51.203125 C47.2815625 50.39875 47.5084375 49.594375 47.7421875 48.765625 C48.82903728 39.85345684 48.07094373 33.59824123 42.8671875 26.015625 C32.97341428 16.12185178 18.0658391 15.87772888 4.86816406 15.81469727 C-0.24981779 15.8872527 -5.09914069 16.32808918 -10.1328125 17.26953125 C-27.53480426 20.47717711 -27.53480426 20.47717711 -35.30712891 15.47973633 C-38.36496151 13.20713614 -41.17610862 10.82165161 -43.9453125 8.203125 C-41.42244478 5.68025728 -39.82993169 5.6025704 -36.34375 4.94921875 C-34.64798828 4.62727539 -34.64798828 4.62727539 -32.91796875 4.29882812 C-31.73074219 4.08162109 -30.54351562 3.86441406 -29.3203125 3.640625 C-28.15628906 3.41955078 -26.99226563 3.19847656 -25.79296875 2.97070312 C-17.17085619 1.35466731 -8.78350342 0.05486521 0 0 Z " fill="#0A0A0A" transform="translate(382.9453125,37.796875)"/>
<path d="M0 0 C0.66 0 1.32 0 2 0 C2 2.31 2 4.62 2 7 C1.34 6.01 0.68 5.02 0 4 C-5.61 9.61 -11.22 15.22 -17 21 C-17.66 20.67 -18.32 20.34 -19 20 C-18.3498291 19.35768433 -18.3498291 19.35768433 -17.68652344 18.70239258 C-15.70499954 16.74178536 -13.72747941 14.7771861 -11.75 12.8125 C-11.06808594 12.13896484 -10.38617188 11.46542969 -9.68359375 10.77148438 C-6.83435252 7.93607441 -4.13498552 5.17096675 -1.640625 2.01171875 C-1.09921875 1.34785156 -0.5578125 0.68398437 0 0 Z " fill="#3D3D3D" transform="translate(415,183)"/>
<path d="M0 0 C0.66 0.33 1.32 0.66 2 1 C-1.3 4.3 -4.6 7.6 -8 11 C-8.33 10.34 -8.66 9.68 -9 9 C-6 6 -3 3 0 0 Z " fill="#404140" transform="translate(266,144)"/>
<path d="M0 0 C0.33 0 0.66 0 1 0 C1 1.98 1 3.96 1 6 C0.01 6 -0.98 6 -2 6 C-4.17032476 7.43990623 -4.17032476 7.43990623 -6 9 C-4.47300326 5.56425733 -2.44973747 2.84485642 0 0 Z " fill="#444444" transform="translate(61,221)"/>
<path d="M0 0 C0 0.66 0 1.32 0 2 C-0.66 2 -1.32 2 -2 2 C-2.33 2.99 -2.66 3.98 -3 5 C-3.33 4.01 -3.66 3.02 -4 2 C-6.31 2 -8.62 2 -11 2 C-11 1.67 -11 1.34 -11 1 C-3.375 0 -3.375 0 0 0 Z " fill="#686868" transform="translate(356,107)"/>
</svg>
